Coordinates
version=1
nRows=17
nColumns=40
inDegrees=yes

Units are S.I. units (second, meters, Newtons, ...)
Angles are in degrees.

endheader
time	pelvis_tilt	pelvis_list	pelvis_rotation	pelvis_tx	pelvis_ty	pelvis_tz	hip_flexion_r	hip_adduction_r	hip_rotation_r	knee_angle_r	knee_angle_r_beta	ankle_angle_r	subtalar_angle_r	mtp_angle_r	hip_flexion_l	hip_adduction_l	hip_rotation_l	knee_angle_l	knee_angle_l_beta	ankle_angle_l	subtalar_angle_l	mtp_angle_l	lumbar_extension	lumbar_bending	lumbar_rotation	arm_flex_r	arm_add_r	arm_rot_r	elbow_flex_r	pro_sup_r	wrist_flex_r	wrist_dev_r	arm_flex_l	arm_add_l	arm_rot_l	elbow_flex_l	pro_sup_l	wrist_flex_l	wrist_dev_l
     57.88000000	     -6.19003662	     -3.40462562	     -1.99700301	      0.96903443	      0.92898618	      0.42435814	     34.39729022	     -7.25783658	     -5.78897375	     72.00212334	     72.00212334	     -2.30952213	    -14.79748226	     -1.19235555	     17.78997049	     -4.49122865	     -9.16636514	     21.96800263	     21.96800263	     12.89198015	     -6.94801049	     -2.02814922	    -11.40501567	      3.29202064	      3.18430746	      3.97949563	    -12.58670801	     -5.52605579	     52.64876256	     45.58905641	      0.00000000	      0.00000000	     16.99233904	    -13.67896676	     -0.03769238	     54.15644800	     46.33333064	      0.00000000	      0.00000000
     57.89107143	     -6.23687060	     -3.39098734	     -2.17574409	      0.96795249	      0.92946779	      0.42443737	     35.53500943	     -7.20923669	     -5.69057164	     70.81949607	     70.81949607	     -2.41599582	    -14.37130404	     -2.05586740	     16.99132598	     -4.47578982	     -9.48773691	     21.37767371	     21.37767371	     13.05693135	     -6.61366748	     -2.46515310	    -11.41742384	      3.27018333	      3.27238345	      3.16775053	    -12.66835507	     -6.02985074	     47.33657993	     45.79482918	      0.00000000	      0.00000000	     18.67037185	    -14.11264982	      0.51075623	     55.13109382	     46.35629263	      0.00000000	      0.00000000
     57.90214286	     -6.21854917	     -3.36025890	     -2.36283925	      0.96696406	      0.93001541	      0.42445281	     36.49780647	     -7.18083337	     -5.59129370	     69.50254119	     69.50254119	     -2.31667548	    -13.69316778	     -2.18421807	     16.04723790	     -4.40826376	     -9.80071058	     20.65278636	     20.65278636	     13.32596572	     -6.21099786	     -2.56702237	    -11.60974478	      3.26112163	      3.70204457	      1.26427775	    -13.17187315	     -6.07475453	     44.86814173	     45.87636654	      0.00000000	      0.00000000	     20.31740834	    -14.17438428	      0.41082718	     56.66627780	     46.40703023	      0.00000000	      0.00000000
     57.91321429	     -6.21308112	     -3.36589535	     -2.54033376	      0.96597300	      0.93039349	      0.42463031	     37.36562615	     -7.05509950	     -5.48502066	     67.99629610	     67.99629610	     -2.34036053	    -13.16291442	     -2.31769591	     15.22665104	     -4.43985740	    -10.23166442	     20.11138365	     20.11138365	     13.43783371	     -5.69332189	     -3.33969329	    -11.66665853	      3.25786746	      3.30243026	      1.78902117	    -12.90494240	     -6.97919811	     37.37635565	     46.20022519	      0.00000000	      0.00000000	     21.35948785	    -15.28380869	      1.31038623	     58.59946309	     46.41688965	      0.00000000	      0.00000000
     57.92428571	     -6.17726324	     -3.32115589	     -2.67325926	      0.96515212	      0.93080920	      0.42474116	     38.05089108	     -7.01877967	     -5.42535719	     66.25805484	     66.25805484	     -2.19527969	    -12.43639536	     -2.00979278	     14.25911929	     -4.33304887	    -10.47894644	     19.33154077	     19.33154077	     13.52039506	     -5.39135744	     -3.74014003	    -11.82273232	      3.24573102	      3.07894147	      1.34305679	    -12.89287017	     -8.15720875	     32.61670064	     46.43457944	      0.00000000	      0.00000000	     22.35464396	    -15.84473639	      1.09143474	     60.71719132	     46.53902339	      0.00000000	      0.00000000
     57.93535714	     -6.17850728	     -3.29020156	     -2.79058476	      0.96437075	      0.93101957	      0.42489137	     38.64437460	     -6.95438135	     -5.38421880	     64.24909708	     64.24909708	     -2.07195662	    -11.73304500	     -1.58851988	     13.39010946	     -4.26735191	    -10.78306040	     18.66789070	     18.66789070	     13.67690920	     -4.93486962	     -4.18157788	    -11.93678446	      3.26485895	      3.09373381	      0.39100796	    -13.07083940	     -9.10410248	     29.05693653	     46.62023009	      0.00000000	      0.00000000	     23.56645955	    -16.28349308	      1.17718512	     62.47831608	     46.62295013	      0.00000000	      0.00000000
     57.94642857	     -6.16510881	     -3.22124771	     -2.90069588	      0.96369313	      0.93118795	      0.42505865	     39.05435811	     -6.92092180	     -5.35204901	     61.89439254	     61.89439254	     -2.00192523	    -11.01496352	     -1.33799186	     12.46849949	     -4.13189897	    -11.03411837	     17.93033623	     17.93033623	     13.90128493	     -4.53472086	     -4.27846401	    -12.07101473	      3.26463489	      3.26656605	     -1.34865444	    -13.48284763	     -9.34069023	     27.48847325	     46.68763008	      0.00000000	      0.00000000	     24.88940737	    -16.44972527	      1.00116365	     63.92426817	     46.67814136	      0.00000000	      0.00000000
     57.95750000	     -6.21487601	     -3.16338996	     -2.96958860	      0.96308073	      0.93113648	      0.42532560	     39.37561694	     -6.87379685	     -5.37591514	     59.21514347	     59.21514347	     -1.95792676	    -10.33193570	     -1.05046506	     11.62896863	     -4.02639733	    -11.30911189	     17.19914277	     17.19914277	     13.90175395	     -4.09552619	     -5.05890528	    -12.10583538	      3.26803752	      2.94814839	     -2.01126059	    -13.59925832	    -10.71072260	     24.11405468	     46.93733026	      0.00000000	      0.00000000	     25.52683127	    -17.32842831	      1.37154733	     66.36677390	     46.75298266	      0.00000000	      0.00000000
     57.96857143	     -6.27639088	     -3.10384695	     -2.99967356	      0.96260026	      0.93098673	      0.42557909	     39.50455585	     -6.84961739	     -5.50631305	     56.14778540	     56.14778540	     -1.91497476	     -9.62067312	     -0.76910951	     10.79935636	     -3.89264649	    -11.45394643	     16.48283079	     16.48283079	     14.14744601	     -3.68916627	     -5.15195372	    -12.09664747	      3.30977907	      2.96644145	     -3.77489850	    -13.95951706	    -10.92394797	     23.11936872	     46.98469810	      0.00000000	      0.00000000	     26.64406527	    -17.46089984	      1.13306899	     67.66795969	     46.80688367	      0.00000000	      0.00000000
     57.97964286	     -6.33358855	     -2.98826955	     -3.03481916	      0.96226191	      0.93070072	      0.42596184	     39.46133600	     -6.85054134	     -5.65075351	     52.73995738	     52.73995738	     -1.86887380	     -8.88033377	     -0.51942259	      9.94124383	     -3.71099822	    -11.67376593	     15.74145287	     15.74145287	     14.35313742	     -3.18611153	     -5.35897414	    -12.09467564	      3.25079789	      3.04666185	     -5.55546016	    -14.27734207	    -11.16521410	     22.15842134	     47.03474258	      0.00000000	      0.00000000	     27.61805700	    -17.65337499	      1.02682178	     69.34777771	     46.85682471	      0.00000000	      0.00000000
     57.99071429	     -6.39765003	     -2.78195050	     -3.07623740	      0.96203699	      0.93019075	      0.42640005	     39.26361183	     -6.90516110	     -5.79671102	     49.02335718	     49.02335718	     -1.88450871	     -8.16194103	     -0.68637233	      9.05426952	     -3.44257085	    -12.03811204	     14.92745392	     14.92745392	     14.40792810	     -2.56756584	     -5.98082697	    -12.13355277	      3.09675627	      3.00494803	     -7.28120762	    -14.47132864	    -11.77251470	     21.37545216	     47.11666288	      0.00000000	      0.00000000	     28.14540794	    -18.20079703	      1.17039501	     72.20559546	     46.92188651	      0.00000000	      0.00000000
     58.00178571	     -6.59599171	     -2.69104963	     -3.02807427	      0.96186660	      0.92937908	      0.42692540	     38.96277989	     -6.85673438	     -6.19123713	     44.94985977	     44.94985977	     -1.79416311	     -7.43383799	     -0.28062195	      8.44165472	     -3.30241088	    -12.09317141	     14.36653528	     14.36653528	     14.67445933	     -2.21615728	     -6.19795068	    -11.91120235	      3.11898712	      2.80499319	     -8.89202564	    -14.69456539	    -11.94411230	     20.80025885	     47.14424327	      0.00000000	      0.00000000	     28.91360167	    -18.58523890	      0.98489277	     73.41761868	     46.96613310	      0.00000000	      0.00000000
     58.01285714	     -6.52869483	     -2.45135956	     -3.07085662	      0.96211145	      0.92873375	      0.42760793	     38.18933425	     -6.90481325	     -6.61161873	     40.58582692	     40.58582692	     -1.94894502	     -6.52122094	     -0.78912235	      7.34237434	     -2.99045873	    -12.43621147	     13.47745116	     13.47745116	     14.65549249	     -1.59342889	     -7.14434886	    -12.09581174	      2.87652586	      2.66649633	    -10.74917424	    -14.84072450	    -12.72271357	     21.06843642	     47.19298972	      0.00000000	      0.00000000	     28.85840681	    -19.33658475	      0.98149426	     77.27900553	     47.07536737	      0.00000000	      0.00000000
     58.02392857	     -6.59963397	     -2.24005256	     -3.04284508	      0.96246247	      0.92773530	      0.42834062	     37.39207350	     -6.90375402	     -7.21651037	     36.09397183	     36.09397183	     -1.81870111	     -5.43728132	     -0.34671810	      6.45938165	     -2.70784429	    -12.59215695	     12.72639292	     12.72639292	     14.83257982	     -1.09385393	     -7.48542171	    -11.99693327	      2.70615960	      2.69696970	    -12.55223026	    -14.93001869	    -12.95435979	     20.80962710	     47.20818712	      0.00000000	      0.00000000	     29.41763796	    -19.43305396	      0.77947818	     79.21991175	     47.14807887	      0.00000000	      0.00000000
     58.03500000	     -6.60132480	     -2.01297468	     -3.01999027	      0.96299530	      0.92655899	      0.42927403	     36.39736582	     -6.86630300	     -7.96544927	     31.58654715	     31.58654715	     -1.60902455	     -4.16838898	      0.48525882	      5.53704919	     -2.42790390	    -12.74575604	     12.07694297	     12.07694297	     15.08339970	     -0.62087270	     -7.91550174	    -11.98859317	      2.51605304	      2.70044036	    -14.33990357	    -14.98385452	    -13.16453961	     20.92607440	     47.20124866	      0.00000000	      0.00000000	     29.74653600	    -19.71009363	      0.65530918	     81.46803439	     47.22068598	      0.00000000	      0.00000000
     58.04607143	     -6.69134195	     -1.84349607	     -2.97445341	      0.96367936	      0.92505691	      0.43046609	     35.37335967	     -6.65786221	     -8.71566878	     27.13319227	     27.13319227	     -1.45269372	     -3.08599890	      1.55999185	      4.83805073	     -2.25775878	    -12.79776125	     11.69462030	     11.69462030	     15.41271886	     -0.38192786	     -8.17832674	    -11.75674583	      2.34569933	      2.62267612	    -15.90316610	    -14.97942749	    -13.24808597	     20.72255802	     47.19957829	      0.00000000	      0.00000000	     30.16334716	    -19.93639395	      0.52710997	     82.82008383	     47.26399310	      0.00000000	      0.00000000
     58.05714286	     -6.53794154	     -1.58425550	     -2.95289440	      0.96476215	      0.92359225	      0.43170782	     34.26333751	     -6.62513482	     -9.75424669	     23.43107535	     23.43107535	     -0.34006980	     -1.12798739	      4.82316300	      3.73705023	     -1.95513344	    -12.93868802	     11.08684799	     11.08684799	     15.61476891	      0.02502343	     -8.89171438	    -11.94349495	      2.09368457	      2.34213682	    -17.98609184	    -15.02783584	    -13.40880116	     22.55087462	     47.09077545	      0.00000000	      0.00000000	     29.65383957	    -20.62759254	      0.20935626	     86.63373589	     47.40934276	      0.00000000	      0.00000000
